name C:/MyDriveSym/Projects/mobilecap/Data\Session20210820_0002\mocap\ForceDataProcessed\walkingTS1_forces.mot
datacolumns 19
datarows 22
range 0.74950000 0.76000000
endheader 
time	R_ground_force_vx	R_ground_force_vy	R_ground_force_vz	R_ground_force_px	R_ground_force_py	R_ground_force_pz	R_ground_torque_x	R_ground_torque_y	R_ground_torque_z	L_ground_force_vx	L_ground_force_vy	L_ground_force_vz	L_ground_force_px	L_ground_force_py	L_ground_force_pz	L_ground_torque_x	L_ground_torque_y	L_ground_torque_z	
          0.74950000	          8.17920400	         72.74804100	          1.32952400	          0.38963500	          0.00600000	         -0.10704300	          0.00000000	         -0.81637200	          0.00000000	       -112.12226600	        805.34091000	         26.91788200	          0.88957800	          0.00600000	         -0.26006800	          0.00000000	         -0.32130400	          0.00000000	
          0.75000000	          7.92446800	         71.45536900	          1.32501200	          0.39031600	          0.00600000	         -0.10700200	          0.00000000	         -0.80587600	          0.00000000	       -111.93151700	        805.58425600	         27.00735500	          0.88966600	          0.00600000	         -0.26009600	          0.00000000	         -0.32576700	          0.00000000	
          0.75050000	          7.67260500	         70.17519800	          1.32034700	          0.39101100	          0.00600000	         -0.10695900	          0.00000000	         -0.79545600	          0.00000000	       -111.73761100	        805.81608500	         27.09578400	          0.88975300	          0.00600000	         -0.26012500	          0.00000000	         -0.33025400	          0.00000000	
          0.75100000	          7.42361100	         68.90747900	          1.31553300	          0.39171900	          0.00600000	         -0.10691400	          0.00000000	         -0.78511500	          0.00000000	       -111.54058200	        806.03647300	         27.18317500	          0.88984100	          0.00600000	         -0.26015300	          0.00000000	         -0.33476700	          0.00000000	
          0.75150000	          7.17748500	         67.65216500	          1.31057600	          0.39244200	          0.00600000	         -0.10686900	          0.00000000	         -0.77485300	          0.00000000	       -111.34046100	        806.24549700	         27.26953600	          0.88992800	          0.00600000	         -0.26018100	          0.00000000	         -0.33930400	          0.00000000	
          0.75200000	          6.93422500	         66.40920400	          1.30548200	          0.39317900	          0.00600000	         -0.10682200	          0.00000000	         -0.76467200	          0.00000000	       -111.13727900	        806.44323800	         27.35487300	          0.89001500	          0.00600000	         -0.26021000	          0.00000000	         -0.34386500	          0.00000000	
          0.75250000	          6.69382800	         65.17854700	          1.30025500	          0.39393200	          0.00600000	         -0.10677300	          0.00000000	         -0.75457100	          0.00000000	       -110.93107000	        806.62977500	         27.43919300	          0.89010200	          0.00600000	         -0.26023800	          0.00000000	         -0.34845000	          0.00000000	
          0.75300000	          6.45628900	         63.96014300	          1.29490100	          0.39470100	          0.00600000	         -0.10672300	          0.00000000	         -0.74455300	          0.00000000	       -110.72186500	        806.80518900	         27.52250200	          0.89018800	          0.00600000	         -0.26026700	          0.00000000	         -0.35305900	          0.00000000	
          0.75350000	          6.22160500	         62.75394100	          1.28942400	          0.39548700	          0.00600000	         -0.10667100	          0.00000000	         -0.73461800	          0.00000000	       -110.50969700	        806.96956100	         27.60480700	          0.89027500	          0.00600000	         -0.26029500	          0.00000000	         -0.35769100	          0.00000000	
          0.75400000	          5.98977100	         61.55988700	          1.28382900	          0.39628900	          0.00600000	         -0.10661800	          0.00000000	         -0.72476800	          0.00000000	       -110.29459900	        807.12297400	         27.68611500	          0.89036100	          0.00600000	         -0.26032400	          0.00000000	         -0.36234600	          0.00000000	
          0.75450000	          5.76078200	         60.37793000	          1.27812100	          0.39711000	          0.00600000	         -0.10656200	          0.00000000	         -0.71500400	          0.00000000	       -110.07660400	        807.26551200	         27.76643300	          0.89044700	          0.00600000	         -0.26035300	          0.00000000	         -0.36702300	          0.00000000	
          0.75500000	          5.53463300	         59.20801700	          1.27230400	          0.39794900	          0.00600000	         -0.10650600	          0.00000000	         -0.70532700	          0.00000000	       -109.85574400	        807.39725800	         27.84576700	          0.89053300	          0.00600000	         -0.26038100	          0.00000000	         -0.37172300	          0.00000000	
          0.75550000	          5.31131700	         58.05009300	          1.26638400	          0.39880700	          0.00600000	         -0.10644700	          0.00000000	         -0.69573800	          0.00000000	       -109.63205300	        807.51829900	         27.92412300	          0.89061900	          0.00600000	         -0.26041000	          0.00000000	         -0.37644500	          0.00000000	
          0.75600000	          5.09082800	         56.90410400	          1.26036300	          0.39968500	          0.00600000	         -0.10638600	          0.00000000	         -0.68623800	          0.00000000	       -109.40556300	        807.62871800	         28.00151000	          0.89070400	          0.00600000	         -0.26043800	          0.00000000	         -0.38118900	          0.00000000	
          0.75650000	          4.87315900	         55.76999500	          1.25424700	          0.40058400	          0.00600000	         -0.10632300	          0.00000000	         -0.67682900	          0.00000000	       -109.17630700	        807.72860500	         28.07793200	          0.89079000	          0.00600000	         -0.26046700	          0.00000000	         -0.38595400	          0.00000000	
          0.75700000	          4.65830200	         54.64771200	          1.24803900	          0.40150400	          0.00600000	         -0.10625800	          0.00000000	         -0.66751200	          0.00000000	       -108.94432000	        807.81804400	         28.15339800	          0.89087500	          0.00600000	         -0.26049500	          0.00000000	         -0.39074000	          0.00000000	
          0.75750000	          4.44625000	         53.53719800	          1.24174400	          0.40244700	          0.00600000	         -0.10619100	          0.00000000	         -0.65828800	          0.00000000	       -108.70963300	        807.89712500	         28.22791300	          0.89096000	          0.00600000	         -0.26052400	          0.00000000	         -0.39554700	          0.00000000	
          0.75800000	          4.23699300	         52.43839800	          1.23536600	          0.40341400	          0.00600000	         -0.10612200	          0.00000000	         -0.64915900	          0.00000000	       -108.47228100	        807.96593700	         28.30148400	          0.89104500	          0.00600000	         -0.26055300	          0.00000000	         -0.40037400	          0.00000000	
          0.75850000	          4.03052400	         51.35125500	          1.22890800	          0.40440400	          0.00600000	         -0.10605000	          0.00000000	         -0.64012600	          0.00000000	       -108.23229700	        808.02456800	         28.37411800	          0.89113000	          0.00600000	         -0.26058100	          0.00000000	         -0.40522100	          0.00000000	
          0.75900000	          3.82683200	         50.27571100	          1.22237400	          0.40542000	          0.00600000	         -0.10597600	          0.00000000	         -0.63119100	          0.00000000	       -107.98971500	        808.07310800	         28.44582100	          0.89121400	          0.00600000	         -0.26061000	          0.00000000	         -0.41008800	          0.00000000	
          0.75950000	          3.62590900	         49.21171100	          1.21576800	          0.40646300	          0.00600000	         -0.10589900	          0.00000000	         -0.62235500	          0.00000000	       -107.74456700	        808.11165000	         28.51659900	          0.89129900	          0.00600000	         -0.26063900	          0.00000000	         -0.41497400	          0.00000000	
          0.76000000	          3.42774400	         48.15919700	          1.20909300	          0.40753300	          0.00600000	         -0.10582000	          0.00000000	         -0.61362000	          0.00000000	       -107.49688800	        808.14028300	         28.58646000	          0.89138300	          0.00600000	         -0.26066700	          0.00000000	         -0.41987800	          0.00000000	
